<?xml version="1.0" encoding="utf-8"?>
<!-- Generator: Adobe Illustrator 25.1.0, SVG Export Plug-In . SVG Version: 6.00 Build 0)  -->
<svg version="1.1" id="Lager_1" xmlns="http://www.w3.org/2000/svg" xmlns:xlink="http://www.w3.org/1999/xlink" x="0px" y="0px"
	 viewBox="0 0 900 900" style="enable-background:new 0 0 900 900;" xml:space="preserve">
<style type="text/css">
	.st0{fill:#FFFFFF;}
</style>
<g>
	<path class="st0" d="M0.82,450c0,71.02,16.56,138.25,46.03,198.02L196.22,79.47C78.29,160.54,0.82,296.39,0.82,450z M450.16,0.66
		c-79.69,0-154.6,20.85-219.56,57.39l218.18,519.79l217.4-521.75C602.04,20.76,528.4,0.66,450.16,0.66z M663.38,321.46
		L448.92,830.92L233.84,318.5L119.47,753.91c82.18,89.36,200.01,145.43,330.69,145.43c128.71,0,244.96-54.4,326.94-141.41
		L663.38,321.46z M698.65,75.79l151.88,578.09c31.3-61.22,48.97-130.53,48.97-203.88C899.5,294.04,819.64,156.39,698.65,75.79z"/>
</g>
</svg>
