<?xml version="1.0" encoding="utf-8"?>
<!-- Generator: Adobe Illustrator 25.1.0, SVG Export Plug-In . SVG Version: 6.00 Build 0)  -->
<svg version="1.1" id="Lager_1" xmlns="http://www.w3.org/2000/svg" xmlns:xlink="http://www.w3.org/1999/xlink" x="0px" y="0px"
	 viewBox="0 0 900 900" style="enable-background:new 0 0 900 900;" xml:space="preserve">
<style type="text/css">
	.st0{fill:#8D4D40;}
	.st1{fill:#FFFFFF;}
</style>
<g>
	<path class="st0" d="M698.65,75.79l151.88,578.09c31.3-61.22,48.97-130.53,48.97-203.88C899.5,294.04,819.64,156.39,698.65,75.79z
		 M448.92,830.92L233.84,318.5L119.47,753.91c82.18,89.36,200.01,145.43,330.69,145.43c128.71,0,244.96-54.4,326.94-141.41
		L663.38,321.46L448.92,830.92z M666.18,56.09C602.04,20.76,528.4,0.66,450.16,0.66c-79.69,0-154.6,20.85-219.56,57.39
		l218.18,519.79L666.18,56.09z M0.82,450c0,71.02,16.56,138.25,46.03,198.02L196.22,79.47C78.29,160.54,0.82,296.39,0.82,450z"/>
</g>
<g>
	<path class="st1" d="M46.85,648.02l-0.24,0.94l-0.2,0.75c19.04,38.51,43.39,73.89,72.69,105.6l0.16-0.59l0.21-0.81
		C90.5,722.42,65.96,686.79,46.85,648.02z M230.35,57.44l-0.21-0.5c-11.45,6.41-22.61,13.32-33.44,20.72l-0.21,0.81l-0.27,1
		c11.11-7.64,22.58-14.79,34.38-21.42L230.35,57.44z M698.39,74.8l-0.21-0.8c-10.24-6.77-20.76-13.11-31.54-19.01l-0.2,0.49
		l-0.26,0.61c11.12,6.11,21.95,12.69,32.47,19.7L698.39,74.8z M850.77,654.82l-0.24-0.94c-19.5,38.15-44.3,73.15-73.43,104.05
		l0.21,0.81l0.15,0.58c29.47-31.14,54.09-65.9,73.51-103.76L850.77,654.82z"/>
</g>
</svg>
